{
  "accessors": [
    {
      "bufferView": 2,
      "componentType": 5126,
      "count": 32111,
      "max": [
        0.8483154773712158,
        3.8388051986694336,
        1.9520246982574463
      ],
      "min": [
        -0.8798379898071289,
        -0.030165672302246094,
        -1.9466023445129395
      ],
      "type": "VEC3"
    },
    {
      "bufferView": 2,
      "byteOffset": 385332,
      "componentType": 5126,
      "count": 32111,
      "max": [
        0.9999635815620422,
        0.9999445080757141,
        0.9999132752418518
      ],
      "min": [
        -0.9999635815620422,
        -0.999958336353302,
        -0.9992074370384216
      ],
      "type": "VEC3"
    },
    {
      "bufferView": 3,
      "componentType": 5126,
      "count": 32111,
      "max": [
        0.9999942779541016,
        0.9998670220375061,
        0.9998856782913208,
        1.0
      ],
      "min": [
        -0.9999806880950928,
        -0.9999611377716064,
        -0.9999668002128601,
        -1.0
      ],
      "type": "VEC4"
    },
    {
      "bufferView": 1,
      "componentType": 5126,
      "count": 32111,
      "max": [
        0.9925240278244019,
        0.9921483993530273
      ],
      "min": [
        0.00813907478004694,
        0.007996082305908203
      ],
      "type": "VEC2"
    },
    {
      "bufferView": 1,
      "byteOffset": 256888,
      "componentType": 5126,
      "count": 32111,
      "max": [
        0.9925240278244019,
        0.9921483993530273
      ],
      "min": [
        0.00813907478004694,
        0.007996082305908203
      ],
      "type": "VEC2"
    },
    {
      "bufferView": 1,
      "byteOffset": 513776,
      "componentType": 5126,
      "count": 32111,
      "max": [
        0.9925240278244019,
        0.9921483993530273
      ],
      "min": [
        0.00813907478004694,
        0.007996082305908203
      ],
      "type": "VEC2"
    },
    {
      "bufferView": 1,
      "byteOffset": 770664,
      "componentType": 5126,
      "count": 32111,
      "max": [
        0.9925240278244019,
        0.9921483993530273
      ],
      "min": [
        0.00813907478004694,
        0.007996082305908203
      ],
      "type": "VEC2"
    },
    {
      "bufferView": 1,
      "byteOffset": 1027552,
      "componentType": 5126,
      "count": 32111,
      "max": [
        0.9925240278244019,
        0.9921483993530273
      ],
      "min": [
        0.00813907478004694,
        0.007996082305908203
      ],
      "type": "VEC2"
    },
    {
      "bufferView": 0,
      "componentType": 5125,
      "count": 171081,
      "type": "SCALAR"
    }
  ],
  "asset": {
    "extras": {
      "author": "amir.saeed.anas (https://sketchfab.com/amir.saeed.anas)",
      "license": "SKETCHFAB Standard (https://sketchfab.com/licenses)",
      "source": "https://sketchfab.com/3d-models/brown-chicken-dde1dc19b4824f64ad41735b626c815c",
      "title": "Brown Chicken"
    },
    "generator": "Sketchfab-16.33.0",
    "version": "2.0"
  },
  "bufferViews": [
    {
      "buffer": 0,
      "byteLength": 684324,
      "name": "floatBufferViews",
      "target": 34963
    },
    {
      "buffer": 0,
      "byteLength": 1284440,
      "byteOffset": 684324,
      "byteStride": 8,
      "name": "floatBufferViews",
      "target": 34962
    },
    {
      "buffer": 0,
      "byteLength": 770664,
      "byteOffset": 1968764,
      "byteStride": 12,
      "name": "floatBufferViews",
      "target": 34962
    },
    {
      "buffer": 0,
      "byteLength": 513776,
      "byteOffset": 2739428,
      "byteStride": 16,
      "name": "floatBufferViews",
      "target": 34962
    }
  ],
  "buffers": [
    {
      "byteLength": 3253204,
      "uri": "scene.bin"
    }
  ],
  "extensionsRequired": [
    "KHR_materials_pbrSpecularGlossiness"
  ],
  "extensionsUsed": [
    "KHR_materials_pbrSpecularGlossiness"
  ],
  "images": [
    {
      "uri": "textures/material_0_diffuse.png"
    },
    {
      "uri": "textures/material_0_specularGlossiness.png"
    },
    {
      "uri": "textures/material_0_normal.png"
    },
    {
      "uri": "textures/material_0_occlusion.png"
    }
  ],
  "materials": [
    {
      "doubleSided": true,
      "extensions": {
        "KHR_materials_pbrSpecularGlossiness": {
          "diffuseFactor": [
            1.0,
            1.0,
            1.0,
            1.0
          ],
          "diffuseTexture": {
            "index": 0
          },
          "glossinessFactor": 1.0,
          "specularFactor": [
            1.0,
            1.0,
            1.0
          ],
          "specularGlossinessTexture": {
            "index": 1
          }
        }
      },
      "name": "material_0",
      "normalTexture": {
        "index": 2
      },
      "occlusionTexture": {
        "index": 3
      }
    }
  ],
  "meshes": [
    {
      "name": "Object_0",
      "primitives": [
        {
          "attributes": {
            "NORMAL": 1,
            "POSITION": 0,
            "TANGENT": 2,
            "TEXCOORD_0": 3,
            "TEXCOORD_1": 4,
            "TEXCOORD_2": 5,
            "TEXCOORD_3": 6,
            "TEXCOORD_4": 7
          },
          "indices": 8,
          "material": 0,
          "mode": 4
        }
      ]
    }
  ],
  "nodes": [
    {
      "children": [
        1
      ],
      "matrix": [
        1.0,
        0.0,
        0.0,
        0.0,
        0.0,
        2.220446049250313e-16,
        -1.0,
        0.0,
        0.0,
        1.0,
        2.220446049250313e-16,
        0.0,
        0.0,
        0.0,
        0.0,
        1.0
      ],
      "name": "Sketchfab_model"
    },
    {
      "children": [
        2
      ],
      "name": "root"
    },
    {
      "children": [
        3
      ],
      "matrix": [
        1.0,
        0.0,
        0.0,
        0.0,
        0.0,
        2.220446049250313e-16,
        1.0,
        0.0,
        0.0,
        -1.0,
        2.220446049250313e-16,
        0.0,
        0.0,
        0.0,
        0.0,
        1.0
      ],
      "name": "GLTF_SceneRootNode"
    },
    {
      "children": [
        4
      ],
      "matrix": [
        0.009999999776482582,
        0.0,
        0.0,
        0.0,
        0.0,
        0.009999999776482582,
        0.0,
        0.0,
        0.0,
        0.0,
        0.009999999776482582,
        0.0,
        0.0,
        0.0,
        0.0,
        1.0
      ],
      "name": "RootNode.0_0"
    },
    {
      "children": [
        5
      ],
      "name": "chicken.1_1"
    },
    {
      "mesh": 0,
      "name": "Object_5"
    }
  ],
  "samplers": [
    {
      "magFilter": 9729,
      "minFilter": 9987,
      "wrapS": 10497,
      "wrapT": 10497
    }
  ],
  "scene": 0,
  "scenes": [
    {
      "name": "Sketchfab_Scene",
      "nodes": [
        0
      ]
    }
  ],
  "textures": [
    {
      "sampler": 0,
      "source": 0
    },
    {
      "sampler": 0,
      "source": 1
    },
    {
      "sampler": 0,
      "source": 2
    },
    {
      "sampler": 0,
      "source": 3
    }
  ]
}
